<?xml version="1.0" standalone="no"?>
<!DOCTYPE svg PUBLIC "-//W3C//DTD SVG 20010904//EN"
 "http://www.w3.org/TR/2001/REC-SVG-20010904/DTD/svg10.dtd">
<svg version="1.0" xmlns="http://www.w3.org/2000/svg"
 width="1280.000000pt" height="801.000000pt" viewBox="0 0 1280.000000 801.000000"
 preserveAspectRatio="xMidYMid meet">
<metadata>
Created by potrace 1.15, written by Peter Selinger 2001-2017
</metadata>
<g transform="translate(0.000000,801.000000) scale(0.100000,-0.100000)"
fill="#000000" stroke="none">
<path d="M6085 6820 c-454 -51 -842 -183 -1233 -419 -87 -52 -92 -57 -86 -83
3 -17 1 -28 -5 -28 -6 0 -11 4 -11 9 0 29 -39 12 -132 -59 -114 -86 -276 -231
-268 -240 3 -3 19 -5 35 -5 23 0 31 -5 33 -22 2 -14 -4 -26 -18 -33 -17 -9
-27 -7 -54 10 l-34 20 -63 -66 c-35 -36 -65 -70 -67 -74 -2 -5 8 -12 22 -16
30 -7 29 -5 16 -38 -12 -32 -46 -35 -55 -5 -4 11 -11 19 -16 17 -4 -2 -38 -41
-73 -88 -53 -69 -62 -86 -50 -93 12 -7 13 -12 3 -23 -10 -12 -14 -12 -21 -2
-10 17 -47 -27 -48 -57 0 -11 -8 -25 -18 -32 -56 -34 -303 -543 -286 -587 3
-9 2 -16 -4 -16 -5 0 -19 -23 -30 -51 l-22 -51 -60 4 c-58 3 -82 -8 -40 -19
19 -5 29 -33 11 -33 -5 0 -8 -6 -7 -12 0 -7 -3 -14 -9 -15 -5 -2 -10 5 -10 15
0 19 -23 38 -33 27 -4 -3 0 -10 7 -14 9 -6 10 -11 2 -15 -6 -4 -11 -2 -11 3 0
6 -5 10 -12 8 -6 -1 -14 6 -16 16 -2 10 2 17 12 17 8 0 18 5 21 11 5 7 -31 10
-119 8 -69 -1 -129 1 -132 4 -4 3 -15 2 -25 -4 -11 -5 -19 -6 -19 -1 0 5 -7 9
-15 9 -18 0 -18 -2 -3 -27 10 -16 9 -22 -11 -40 -13 -11 -27 -20 -30 -20 -17
1 -30 19 -33 49 -3 31 -6 34 -40 36 -21 1 -38 -2 -38 -7 0 -4 5 -8 10 -8 6 0
10 -16 10 -36 0 -21 -4 -33 -10 -29 -12 7 -13 -5 -2 -22 4 -6 16 -11 27 -10
10 1 21 -5 22 -13 4 -20 -54 -23 -61 -4 -3 8 -11 14 -17 14 -7 0 -5 -8 6 -20
16 -17 31 -20 113 -20 76 0 93 3 89 14 -9 22 12 36 38 24 16 -7 29 -6 46 3 13
7 30 12 37 11 7 -2 12 8 12 23 0 23 3 25 28 19 36 -9 37 -10 24 -38 -6 -15
-22 -26 -44 -30 -25 -5 -29 -9 -18 -16 15 -8 155 -12 403 -11 125 1 127 1 127
24 0 49 11 67 41 67 26 0 28 -2 19 -26 -13 -33 -13 -33 11 -27 15 4 20 2 17
-7 -2 -7 -15 -15 -28 -17 -52 -8 -29 -13 56 -13 73 0 93 3 105 18 9 9 26 25
38 34 20 17 21 17 22 -10 1 -15 1 -30 0 -34 0 -4 101 -7 225 -8 l226 -1 -7 28
c-3 15 -13 32 -21 36 -19 11 -8 28 12 20 13 -5 15 -1 9 15 -4 13 -2 22 4 22 6
0 11 -4 11 -9 0 -5 9 -11 20 -14 11 -3 20 -12 20 -21 0 -9 5 -16 10 -16 7 0 7
-6 0 -19 -5 -11 -10 -24 -10 -30 0 -8 116 -11 375 -11 329 0 374 2 369 15 -4
8 -1 15 4 15 6 0 17 -7 26 -15 12 -12 47 -15 191 -15 131 0 174 3 169 12 -5 8
-1 9 17 2 34 -12 1010 -17 1022 -5 6 6 10 24 9 40 0 17 4 33 9 36 15 10 10 28
-6 21 -8 -3 -22 -9 -30 -12 -12 -5 -14 0 -9 25 l7 31 -639 1 c-352 1 -650 0
-664 -1 -31 -3 -45 -23 -22 -32 14 -5 13 -7 -5 -7 -12 -1 -25 3 -28 9 -3 5
-19 7 -34 4 -27 -6 -29 -4 -28 22 3 38 153 190 265 269 50 35 81 63 78 70 -5
15 36 65 54 65 20 0 9 -27 -16 -39 -15 -6 -24 -15 -20 -18 3 -3 50 15 103 40
213 100 390 138 613 133 185 -5 324 -33 487 -99 34 -14 64 -23 66 -20 3 2 14
-3 24 -12 10 -9 50 -35 88 -57 39 -23 95 -61 126 -84 49 -38 59 -41 74 -30 11
8 16 20 12 29 -9 23 -127 108 -232 166 -79 44 -91 48 -97 33 -4 -9 -7 -12 -7
-7 -1 6 -6 3 -11 -5 -8 -13 -12 -13 -27 3 -17 17 -17 18 6 24 l23 6 -23 13
c-19 10 -27 10 -39 0 -9 -8 -24 -10 -40 -5 -18 5 -20 7 -7 8 10 1 17 7 15 14
-7 19 -40 21 -50 3 -5 -9 -14 -16 -21 -16 -9 0 -9 2 0 8 7 4 9 13 4 21 -6 9
-11 10 -15 2 -8 -13 -46 -15 -46 -3 0 4 5 13 12 20 9 9 9 12 0 12 -7 0 -12 -4
-12 -10 0 -5 -4 -10 -10 -10 -5 0 -10 6 -10 14 0 32 -334 58 -470 36 -41 -6
-102 -16 -134 -21 -33 -5 -110 -26 -170 -47 -102 -34 -111 -39 -114 -64 -2
-18 -8 -25 -17 -22 -8 3 -11 13 -8 22 11 26 -174 -80 -267 -154 -8 -6 -59 -54
-113 -105 -71 -68 -97 -99 -93 -112 3 -13 0 -17 -10 -13 -8 3 -23 -7 -36 -24
-19 -27 -48 -41 -48 -24 0 3 23 34 50 69 28 35 50 65 50 69 0 3 -11 0 -25 -6
-14 -6 -25 -17 -25 -25 0 -7 -10 -13 -23 -13 -13 0 -27 -4 -32 -9 -6 -5 -21
-12 -35 -16 -20 -6 -22 -5 -13 5 6 7 9 18 7 25 -3 7 0 16 7 21 9 5 10 2 6 -9
-3 -10 -2 -17 4 -17 9 0 23 13 78 74 27 30 49 33 66 9 11 -15 21 -9 89 53 52
47 72 70 61 72 -29 6 -9 27 26 27 22 0 53 12 89 36 129 85 298 155 480 200 84
20 118 23 300 23 200 -1 279 -10 405 -51 18 -5 18 -4 6 11 -13 15 -13 19 0 27
23 15 29 11 29 -21 0 -16 3 -29 8 -28 8 2 20 -4 162 -69 104 -48 166 -85 252
-150 31 -24 64 -43 73 -43 9 0 13 -5 9 -11 -4 -8 0 -9 15 -4 12 4 21 2 21 -4
0 -6 -5 -11 -12 -11 -16 0 61 -78 84 -86 10 -3 18 -12 18 -19 0 -22 14 -25 43
-10 26 13 37 11 37 -8 0 -6 -3 -7 -7 -4 -3 4 -13 -2 -20 -13 -22 -31 -1 -50
54 -50 24 0 42 4 39 9 -4 5 2 7 11 5 10 -2 24 0 32 5 23 15 -54 104 -83 97
-26 -6 -63 28 -44 40 7 4 14 2 16 -4 2 -7 11 -12 19 -12 14 0 14 3 -2 20 -13
14 -22 17 -35 10 -10 -5 -20 -6 -24 -3 -3 3 -6 1 -6 -5 0 -6 5 -14 10 -17 6
-3 10 -12 10 -20 0 -20 -57 -16 -64 4 -3 9 -9 22 -12 29 -4 8 0 10 10 6 12 -5
15 -2 10 10 -4 11 -2 15 8 11 8 -3 24 -2 37 3 21 8 18 12 -51 78 -90 85 -134
118 -143 104 -10 -16 -23 -12 -30 11 -5 13 -13 19 -23 16 -10 -2 -23 -6 -31
-8 -7 -2 -16 2 -18 9 -3 7 5 12 21 12 14 0 26 3 26 8 0 14 -88 62 -104 56 -22
-8 -21 -13 19 -59 38 -43 41 -50 24 -60 -13 -9 -55 30 -74 69 -14 26 -13 31 2
48 9 10 14 20 12 22 -18 17 -245 116 -265 116 -13 0 0 -20 16 -25 23 -7 27
-35 6 -35 -8 0 -21 -3 -30 -6 -12 -5 -16 1 -16 22 0 45 -10 52 -93 74 -132 33
-240 43 -417 37 -182 -6 -301 -27 -447 -78 -151 -53 -363 -163 -363 -189 0 -6
5 -8 12 -4 7 4 8 3 4 -5 -4 -6 -16 -9 -27 -6 -20 7 -50 -13 -156 -104 -57 -48
-64 -61 -33 -61 11 0 20 -5 20 -10 0 -18 -29 -23 -46 -9 -14 12 -21 9 -50 -25
-35 -40 -42 -56 -24 -56 6 0 10 -7 10 -15 0 -8 -7 -15 -15 -15 -8 0 -15 5 -15
10 0 20 -16 9 -48 -35 -19 -24 -31 -49 -27 -55 3 -5 -1 -10 -10 -10 -8 0 -20
-11 -25 -25 -12 -32 -35 -37 -168 -33 -88 2 -112 0 -112 -10 0 -22 -30 -47
-39 -33 -4 6 -15 9 -24 6 -11 -5 -16 0 -19 17 -2 13 -6 22 -10 21 -5 -2 -127
-3 -273 -3 l-265 0 0 -29 c0 -34 -8 -42 -37 -35 -13 4 -19 12 -17 22 7 27 -12
45 -48 46 -23 1 -32 5 -30 15 3 12 0 12 -12 1 -26 -21 -18 3 11 34 16 17 26
41 27 60 1 19 6 30 13 29 7 -2 16 9 19 25 11 41 148 284 225 397 173 254 412
491 660 654 l85 56 -2 42 c-1 24 2 45 7 48 5 4 9 1 9 -4 0 -6 9 -3 20 6 11 10
20 23 20 31 0 7 10 17 23 21 29 12 51 -8 40 -35 -10 -23 -38 -32 -30 -9 4 8 2
15 -3 15 -6 0 -10 -6 -10 -14 0 -8 -12 -23 -27 -34 -15 -11 -23 -24 -19 -31 5
-8 39 5 109 42 266 139 607 246 866 273 33 4 61 10 61 13 0 3 65 7 145 9 269
6 550 -30 806 -103 124 -36 322 -109 348 -129 11 -8 15 -8 18 2 7 19 30 14 36
-7 2 -11 47 -42 108 -76 57 -32 139 -82 182 -112 43 -29 85 -53 93 -53 8 0 14
-4 14 -10 0 -5 28 -32 62 -59 50 -40 64 -47 72 -36 6 7 20 15 31 17 24 4 32
42 14 64 -22 26 -190 149 -294 215 -85 53 -303 169 -318 169 -3 0 -3 -9 0 -20
4 -15 0 -20 -16 -20 -12 0 -20 -4 -17 -9 3 -5 -1 -15 -10 -22 -14 -11 -19 -9
-35 11 -10 14 -19 30 -19 37 0 17 35 34 54 27 9 -3 16 -2 16 4 0 5 -25 18 -55
29 -42 16 -55 18 -55 8 0 -17 -36 -29 -75 -26 -33 3 -50 20 -34 36 6 6 13 5
19 -5 9 -13 11 -13 20 0 5 8 10 18 10 23 0 12 -51 28 -79 25 -20 -2 -25 -8
-23 -25 3 -22 -28 -40 -48 -28 -18 11 -11 23 10 18 23 -6 26 5 7 32 -15 19
-42 12 -31 -8 4 -7 4 -9 -1 -5 -4 4 -15 3 -24 -1 -22 -12 -61 4 -61 25 0 9 9
18 20 21 26 7 26 23 -1 23 -11 0 -17 -4 -14 -10 6 -9 2 -12 -27 -14 -7 -1 -13
8 -13 19 0 18 -14 23 -119 41 -233 43 -481 54 -716 32 -122 -11 -150 -19 -100
-28 21 -3 34 -11 32 -19 -1 -7 6 -15 17 -18 10 -3 21 -13 24 -24 7 -27 -8 -24
-37 8 -14 15 -28 24 -31 21 -4 -4 -15 2 -26 13 -23 23 -48 24 -74 5 -14 -10
-25 -11 -38 -4 -10 5 -26 7 -35 3 -9 -4 -33 -8 -52 -10 -52 -6 -272 -70 -375
-111 -94 -36 -148 -63 -129 -64 7 0 10 -13 8 -32 -1 -18 -3 -37 -3 -42 -1 -5
-9 -2 -19 7 -10 10 -22 14 -27 10 -4 -5 -5 4 -1 20 3 15 4 27 0 27 -10 0 -184
-92 -197 -104 -7 -6 -28 -18 -47 -27 -19 -9 -83 -51 -142 -93 -79 -56 -106
-80 -101 -92 4 -12 1 -15 -14 -12 -28 4 -140 -90 -274 -230 -107 -112 -121
-136 -97 -160 18 -18 0 -28 -24 -13 -24 15 -24 15 -95 -87 -25 -36 -34 -56
-26 -60 17 -11 -2 -36 -20 -29 -20 8 -60 -54 -55 -84 l3 -21 27 21 c14 12 28
21 30 21 9 0 6 -40 -3 -41 -5 -1 -15 -2 -21 -3 -7 -1 -12 -9 -12 -19 2 -22 -5
-22 -32 4 l-22 20 -35 -63 c-59 -107 -112 -218 -157 -330 -36 -91 -47 -108
-65 -108 -36 0 -67 42 -63 86 3 36 6 39 36 42 31 3 33 2 22 -17 -6 -12 -7 -21
-2 -21 5 0 24 37 42 81 43 108 140 294 206 397 30 45 54 89 54 97 0 8 6 15 13
16 6 0 36 33 65 73 29 41 76 99 104 131 40 44 48 59 37 65 -8 6 -16 5 -20 -2
-4 -7 -15 -13 -24 -14 -36 -5 -45 -14 -45 -45 l0 -32 -50 5 c-38 4 -50 2 -50
-8 0 -12 -19 -19 -42 -15 -5 0 -18 -9 -30 -21 -15 -15 -23 -18 -26 -9 -2 7 1
18 7 24 6 6 11 25 11 42 0 16 5 37 10 45 8 13 10 13 10 -1 0 -9 11 -21 25 -27
32 -15 45 -15 45 -1 0 6 16 30 35 53 19 24 35 50 35 60 0 9 7 16 16 16 14 0
14 2 3 16 -12 14 -14 14 -25 0 -12 -18 -30 -21 -38 -7 -9 13 27 47 51 48 14 1
23 -6 26 -19 5 -18 11 -20 41 -15 34 5 66 -10 66 -32 0 -23 45 1 106 58 38 35
100 89 137 120 l68 56 -30 10 c-42 14 -46 21 -24 44 15 16 27 20 51 15 17 -4
37 -12 43 -20 9 -11 21 -6 62 25 212 158 564 320 857 396 272 70 638 101 885
76 73 -7 111 -8 113 -1 5 14 28 12 41 -4 6 -7 46 -19 89 -26 42 -6 130 -25
195 -42 66 -16 121 -28 123 -25 2 2 -5 16 -17 31 -24 30 -19 40 24 50 23 6 29
3 38 -20 7 -19 7 -37 0 -57 -10 -28 -10 -29 14 -23 17 4 27 2 31 -8 3 -8 17
-17 32 -21 45 -11 211 -84 333 -146 125 -64 316 -186 418 -268 42 -34 73 -51
91 -51 23 0 27 -4 23 -20 -6 -21 20 -29 32 -10 9 15 25 12 25 -5 0 -9 -7 -18
-16 -22 -12 -4 0 -21 52 -74 39 -39 72 -65 80 -62 9 3 14 -2 14 -17 0 -16 4
-20 16 -16 23 9 37 -3 23 -20 -9 -11 -8 -19 6 -34 16 -17 21 -18 34 -7 28 24
49 27 54 9 3 -9 5 -4 6 12 1 23 5 27 21 23 11 -3 20 0 21 6 0 7 5 -1 10 -18 9
-30 -3 -57 -15 -36 -9 15 -26 14 -26 -1 0 -6 -9 -22 -21 -34 l-21 -22 63 -82
c35 -45 69 -90 74 -99 151 -248 206 -351 265 -501 19 -47 35 -87 37 -89 1 -2
17 6 35 18 22 14 27 21 16 21 -11 0 -18 8 -18 20 0 11 5 20 10 20 6 0 10 -7
10 -15 0 -8 5 -15 10 -15 17 0 11 -61 -9 -85 -13 -18 -21 -21 -30 -12 -8 8
-11 8 -11 0 0 -6 -8 -10 -17 -9 -11 2 -35 47 -72 137 -133 317 -334 622 -547
829 -42 41 -95 93 -117 115 -21 22 -36 33 -33 25 3 -8 9 -23 12 -32 3 -10 15
-20 26 -24 13 -4 17 -11 13 -22 -4 -10 -9 -29 -12 -44 -5 -27 -23 -39 -23 -16
0 6 -3 8 -7 4 -4 -3 29 -44 73 -89 84 -86 141 -152 213 -250 40 -52 45 -56 57
-40 15 19 17 18 51 -34 11 -17 12 -17 19 5 8 27 24 29 24 3 0 -13 -11 -23 -35
-31 -19 -6 -35 -13 -35 -15 0 -2 23 -41 52 -87 28 -46 75 -134 104 -195 48
-100 57 -113 79 -113 23 0 24 -2 15 -21 -10 -17 -8 -21 9 -26 27 -7 27 -23 1
-30 -16 -4 -18 -9 -9 -24 7 -14 6 -21 -4 -25 -7 -2 -102 -4 -210 -2 -142 2
-197 0 -197 -8 0 -7 9 -14 20 -17 17 -4 18 -8 7 -31 -13 -28 -22 -32 -32 -16
-4 6 -11 8 -16 5 -5 -4 -9 -1 -9 5 0 7 7 10 15 6 18 -6 20 10 3 20 -6 4 -16 0
-23 -9 -16 -23 -25 -21 -25 3 0 11 7 20 15 20 8 0 15 4 15 9 0 12 -197 19
-217 7 -9 -5 -19 -4 -25 2 -8 8 -17 8 -30 1 -10 -5 -18 -6 -18 -1 0 5 -7 9
-15 9 -18 0 -18 -2 -3 -26 10 -17 8 -23 -13 -40 -41 -35 -61 -23 -63 37 -1 22
-6 25 -39 26 -36 1 -47 -7 -27 -19 6 -3 10 -20 10 -36 0 -17 -4 -28 -9 -24 -5
3 -12 1 -15 -4 -9 -13 19 -32 38 -25 14 6 20 -4 14 -23 -5 -13 -47 -11 -52 3
-3 8 -10 14 -16 14 -6 0 -5 -7 2 -20 11 -18 24 -20 111 -20 92 0 98 1 92 19
-7 22 15 34 36 20 20 -13 36 -11 53 6 8 9 21 14 28 13 7 -2 14 7 16 20 3 18 8
22 25 16 12 -3 26 -10 30 -14 16 -14 -12 -47 -45 -54 -26 -5 -30 -9 -18 -16
24 -15 528 -13 527 3 0 6 1 27 1 45 2 30 4 32 37 32 33 0 35 -2 25 -21 -10
-17 -8 -21 10 -26 28 -8 20 -27 -16 -34 -16 -4 11 -7 64 -8 52 0 92 3 92 8 0
6 13 18 29 27 17 10 28 21 25 26 -3 5 -10 6 -15 3 -5 -4 -9 1 -9 9 0 20 7 20
26 2 8 -8 14 -28 14 -45 l0 -30 225 -1 226 -1 -7 28 c-4 15 -13 32 -21 36 -20
12 -16 26 7 20 21 -6 28 12 8 20 -7 2 -9 8 -5 13 4 5 11 3 15 -3 4 -6 16 -12
26 -14 24 -5 44 -58 26 -69 -7 -4 -9 -13 -6 -19 5 -8 118 -11 381 -11 329 0
374 2 369 15 -8 19 10 19 30 0 11 -12 42 -15 145 -15 l129 0 31 -31 31 -31 1
-496 c2 -651 -1 -595 28 -602 31 -7 40 -30 12 -30 -12 0 -21 -5 -21 -11 0 -5
-4 -8 -9 -4 -5 3 -21 -6 -34 -19 -14 -14 -42 -28 -63 -32 -22 -4 -44 -14 -50
-21 -9 -13 -12 -13 -23 1 -19 23 -161 23 -161 1 0 -9 -7 -18 -15 -21 -12 -5
-13 -10 -5 -20 8 -9 8 -18 0 -33 -14 -28 -22 -26 -48 9 -26 35 -27 38 -5 62
15 17 14 18 -45 18 -34 0 -61 -3 -61 -7 5 -29 -2 -36 -17 -15 -15 22 -20 22
-220 22 -143 0 -210 -4 -224 -12 -15 -10 -26 -10 -53 0 -47 17 -64 15 -70 -9
-6 -23 -27 -17 -27 7 0 12 -37 14 -234 14 -226 0 -235 -1 -241 -20 -4 -11 -10
-18 -15 -15 -5 3 -7 12 -3 20 4 13 -139 15 -1165 15 -1160 0 -1171 0 -1177
-20 -7 -23 -50 -27 -58 -6 -4 10 3 16 21 19 15 2 -201 5 -479 6 -461 1 -507 0
-513 -15 -6 -16 -8 -16 -24 0 -26 23 -162 23 -162 1 0 -9 -7 -18 -15 -21 -11
-5 -12 -10 -6 -18 14 -16 2 -56 -15 -56 -8 0 -18 8 -21 18 -4 9 -13 23 -20 31
-12 11 -11 17 2 37 l15 24 -60 0 c-33 0 -59 -3 -59 -7 5 -29 -2 -36 -17 -15
-15 22 -20 22 -223 22 -144 0 -211 -4 -219 -12 -9 -9 -21 -9 -50 0 -55 17 -69
15 -75 -9 -6 -23 -27 -17 -27 7 0 12 -35 14 -216 14 -209 0 -216 -1 -233 -22
-20 -24 -55 -19 -45 7 6 13 -86 15 -875 15 -929 0 -913 -1 -949 43 -18 21 -20
1134 -3 1166 15 28 68 51 116 51 19 0 35 5 35 10 0 6 16 10 35 10 19 0 35 -4
35 -10 0 -5 21 -10 46 -10 29 0 43 4 39 10 -4 6 -15 8 -25 5 -30 -10 -31 10
-1 32 23 18 27 27 23 57 -3 28 -1 36 12 36 9 0 16 5 16 11 0 6 -7 8 -16 5 -9
-3 -114 -6 -235 -6 -188 0 -219 -2 -219 -15 0 -8 4 -15 8 -15 5 0 16 -16 26
-36 16 -36 16 -37 -6 -70 -23 -34 -58 -46 -58 -21 0 7 -7 22 -15 33 -13 17
-14 2 -15 -138 0 -110 3 -158 11 -158 19 0 78 -71 85 -103 3 -17 12 -37 19
-44 10 -10 12 -42 6 -82 -1 -2 -8 2 -16 9 -9 7 -13 21 -10 30 7 23 -4 50 -20
50 -15 0 -28 -41 -20 -63 3 -7 -1 -20 -10 -27 -14 -12 -14 -14 0 -30 10 -11
12 -20 6 -24 -5 -4 -19 4 -30 16 l-21 22 0 -22 c0 -13 6 -22 15 -22 8 0 15 -5
15 -11 0 -6 -7 -9 -15 -5 -13 5 -15 -35 -15 -321 0 -285 2 -329 16 -344 9 -10
22 -15 30 -12 8 3 14 0 14 -6 0 -6 -8 -11 -17 -11 -15 0 -15 -1 2 -14 28 -20
13 -50 -21 -42 -25 7 -26 5 -19 -21 15 -62 61 -83 177 -82 101 1 134 9 130 32
-2 9 2 17 9 17 7 0 9 -10 7 -25 l-5 -25 249 0 c164 0 247 3 243 10 -3 6 -2 10
4 10 5 0 13 -4 16 -10 11 -18 37 -11 31 8 -8 24 31 63 43 43 7 -11 12 -11 29
0 21 13 46 4 27 -9 -6 -4 -10 -17 -11 -29 -1 -22 2 -23 98 -23 l98 0 0 35 c0
38 13 49 51 43 l22 -3 -26 -31 c-15 -18 -27 -35 -27 -38 0 -3 56 -6 125 -6 77
0 125 4 125 10 0 14 20 12 51 -4 17 -9 32 -10 43 -4 12 7 16 5 16 -9 1 -12 6
-8 14 12 12 25 15 27 21 13 4 -10 13 -18 21 -18 8 0 14 -7 14 -15 0 -17 -16
-20 -25 -5 -10 17 -25 11 -25 -10 0 -11 -9 -25 -20 -32 -11 -7 -20 -18 -20
-25 0 -23 52 -168 62 -174 6 -4 7 -12 4 -18 -4 -6 -2 -11 4 -11 6 0 9 -4 6 -9
-4 -5 -3 -16 0 -25 5 -12 10 -14 19 -6 18 15 30 -6 15 -25 -15 -18 -9 -35 75
-206 77 -155 171 -308 275 -448 90 -121 270 -320 285 -317 6 2 17 -9 26 -23 9
-15 50 -57 91 -94 68 -60 78 -66 101 -58 14 5 28 15 32 20 11 18 25 12 35 -14
5 -14 20 -29 32 -34 34 -13 60 -46 58 -73 -1 -13 -2 -28 -1 -35 1 -13 151
-110 164 -105 4 1 20 -9 35 -23 23 -22 317 -175 335 -175 4 0 4 6 1 14 -3 8
-1 17 5 21 6 3 8 17 5 31 -7 28 12 58 33 50 8 -3 21 -2 31 3 9 5 41 19 69 32
29 12 51 25 48 27 -5 6 -237 109 -281 126 -17 6 -49 23 -70 38 -22 14 -70 45
-109 68 -69 41 -250 167 -277 192 -7 7 -40 36 -73 64 -56 48 -62 50 -82 37
-17 -11 -26 -12 -42 -3 -28 15 -26 28 6 41 l27 10 -36 36 c-24 24 -42 34 -52
30 -15 -6 -15 -9 -1 -36 29 -58 13 -94 -23 -49 -37 46 -54 59 -69 54 -8 -3
-37 4 -64 16 -39 18 -48 27 -43 41 6 19 -41 88 -78 115 -10 7 -18 24 -18 37 0
13 -7 30 -15 39 -22 21 -18 36 8 32 12 -3 25 -5 30 -5 4 -1 7 -14 7 -30 0 -16
7 -34 15 -41 17 -14 20 -35 4 -24 -7 4 -10 2 -8 -5 3 -7 9 -12 14 -12 6 0 20
-7 33 -15 16 -10 27 -12 41 -5 25 14 30 6 24 -35 -3 -20 -1 -40 6 -48 11 -13
18 -12 52 6 21 11 39 22 39 25 0 3 -25 35 -55 71 -31 35 -81 100 -113 143 -49
69 -58 77 -72 64 -12 -10 -19 -11 -31 -2 -9 7 -14 17 -12 24 2 7 0 20 -6 30
-5 11 -6 25 -1 34 6 10 -4 37 -32 84 -54 94 -108 202 -154 310 -21 50 -40 92
-43 95 -3 3 -7 12 -8 20 -1 8 -15 57 -31 109 -25 78 -29 98 -19 120 l11 26 4
-28 c2 -16 10 -31 17 -34 8 -2 26 -43 41 -89 18 -55 32 -84 42 -84 9 0 13 -7
9 -20 -7 -26 21 -97 98 -252 76 -151 159 -285 254 -411 104 -136 111 -143 121
-128 12 20 28 5 23 -22 -3 -17 7 -33 44 -67 26 -24 53 -45 58 -46 6 0 16 -2
23 -2 6 -1 12 -7 12 -13 0 -6 -7 -9 -15 -5 -8 3 -15 1 -15 -4 0 -6 11 -10 25
-10 14 0 25 -4 25 -10 0 -29 5 -36 72 -91 l48 -41 11 31 c6 17 16 31 22 31 7
1 6 6 -3 13 -8 7 -15 21 -15 32 0 12 -38 57 -97 114 -54 52 -98 89 -98 82 0
-6 -11 -11 -25 -11 -20 0 -25 5 -25 24 0 13 5 26 11 28 6 2 -26 51 -72 108
-46 58 -103 135 -127 171 -24 37 -52 69 -63 72 -15 4 -19 11 -15 24 4 12 -11
48 -39 97 -25 44 -45 83 -45 88 0 4 -6 8 -14 8 -9 0 -12 7 -9 19 2 10 -6 40
-20 67 -13 27 -35 77 -47 112 -15 41 -27 61 -36 58 -17 -6 -23 15 -11 35 7 11
6 27 -2 49 -6 18 -10 34 -9 36 7 6 130 7 558 5 l465 -2 65 -101 c44 -69 103
-141 181 -222 103 -105 119 -118 143 -114 33 7 90 -39 81 -64 -7 -19 43 -53
199 -134 71 -37 96 -38 96 -4 0 11 4 20 9 20 5 0 18 3 28 7 16 6 16 5 4 -10
-7 -9 -11 -26 -8 -36 3 -13 -1 -21 -11 -23 -23 -5 148 -61 182 -60 17 0 33 -3
36 -8 3 -5 48 -16 100 -26 119 -22 428 -25 475 -4 17 7 55 14 85 16 48 2 155
29 215 53 164 68 203 86 220 100 11 10 32 22 46 28 22 9 25 16 21 42 -2 18 0
31 7 31 6 0 8 -8 4 -17 -3 -10 -3 -15 2 -11 4 4 13 3 20 -2 8 -7 34 6 83 41
67 47 87 69 62 69 -5 0 -10 5 -10 11 0 8 4 8 15 -1 11 -9 20 -8 43 9 74 52
246 260 309 371 24 43 31 48 52 43 21 -5 23 -3 19 15 -4 12 0 26 8 33 10 8 14
8 14 0 0 -6 9 -11 20 -11 11 0 20 5 20 10 0 6 6 10 13 10 9 0 12 -10 9 -30
l-4 -30 102 0 103 0 -6 29 c-7 33 7 51 40 51 28 0 29 -14 3 -42 -11 -12 -20
-25 -20 -30 0 -4 56 -8 125 -8 74 0 125 4 125 10 0 5 18 8 39 5 26 -2 44 1 52
11 16 19 25 18 47 -7 16 -16 29 -20 73 -17 50 3 53 5 61 36 5 17 12 32 17 32
15 0 20 -27 8 -39 -8 -8 -7 -11 6 -11 9 0 17 7 17 15 0 24 18 17 22 -7 2 -19
10 -24 46 -26 23 -2 42 -7 42 -12 0 -5 -14 -47 -31 -95 -16 -48 -28 -89 -25
-92 2 -3 15 2 28 11 12 9 28 16 35 16 17 0 17 -30 1 -32 -7 0 -17 -2 -23 -3
-5 -2 -20 -3 -33 -4 -18 -1 -28 -11 -40 -43 -68 -177 -203 -403 -348 -585 -44
-55 -69 -93 -61 -96 14 -4 -66 -87 -84 -87 -7 0 -46 -33 -88 -73 -211 -200
-470 -370 -736 -482 -60 -25 -119 -50 -130 -54 -11 -5 -55 -19 -97 -32 -43
-12 -78 -26 -78 -30 0 -4 -8 -5 -19 -2 -10 3 -22 0 -25 -6 -4 -6 0 -11 11 -11
14 0 15 -2 4 -9 -9 -6 -19 -4 -28 5 -8 8 -19 14 -24 14 -15 0 -10 -27 6 -34 9
-3 15 -18 15 -40 l0 -34 68 18 c174 46 315 100 339 130 7 8 10 21 8 29 -8 20
14 41 33 34 29 -11 32 -27 9 -40 -14 -8 -16 -12 -7 -12 8 0 78 33 155 73 127
66 140 75 137 98 -1 14 4 31 12 37 8 7 12 19 9 27 -3 9 0 14 8 12 8 -2 16 -18
19 -36 l5 -34 48 37 c33 25 45 40 39 48 -20 26 -20 56 0 62 26 9 50 -13 42
-38 -5 -17 1 -15 37 13 113 87 299 256 299 272 0 4 -7 8 -15 8 -8 0 -15 4 -15
9 0 13 68 53 79 47 9 -6 84 76 138 152 21 28 29 50 26 65 -4 18 -3 19 6 7 10
-13 14 -12 30 10 117 150 340 601 326 657 -3 13 0 25 9 30 7 4 19 26 26 48 12
38 25 54 43 55 13 0 8 -33 -17 -110 -95 -297 -270 -615 -474 -860 -37 -45 -67
-89 -67 -98 0 -10 -8 -17 -20 -17 -13 0 -21 -8 -23 -22 -2 -12 -9 -23 -17 -25
-7 -2 -50 -37 -96 -78 -126 -115 -226 -196 -311 -253 -65 -43 -76 -54 -63 -63
16 -12 10 -24 -14 -24 -8 0 -26 -10 -39 -22 -14 -13 -22 -18 -18 -11 3 6 2 14
-4 18 -14 8 -160 -74 -160 -91 0 -8 -9 -19 -20 -26 -11 -7 -20 -18 -20 -25 0
-8 -8 -5 -20 7 l-20 20 -39 -20 c-22 -11 -42 -29 -46 -40 -7 -22 -34 -27 -52
-9 -7 7 -15 6 -25 -5 -9 -8 -18 -13 -20 -10 -3 2 -27 -4 -54 -15 -27 -10 -76
-26 -109 -35 -33 -10 -69 -21 -80 -26 -24 -11 -239 -56 -310 -65 -27 -4 -79
-11 -115 -16 -36 -5 -131 -9 -212 -9 -85 0 -149 -4 -153 -10 -4 -6 -13 -6 -23
-1 -9 5 -78 15 -153 21 -74 7 -151 13 -170 15 -19 2 -92 17 -164 34 -71 17
-131 31 -132 31 -2 0 -3 -8 -3 -18 0 -10 11 -29 25 -42 14 -13 25 -33 25 -44
-1 -22 -29 -67 -32 -50 0 5 -2 14 -3 19 -2 6 -3 16 -4 22 -2 19 -62 47 -71 34
-11 -19 -40 -1 -37 22 1 16 -4 23 -20 25 -18 3 -23 10 -23 34 0 24 -3 29 -16
24 -12 -4 -15 -2 -11 9 10 26 -15 29 -34 4 -14 -19 -21 -21 -30 -12 -10 10
-19 9 -43 -5 -56 -30 -76 -53 -66 -72 5 -10 7 -20 4 -22 -2 -3 2 -11 11 -18 8
-7 15 -17 15 -22 0 -6 -5 -6 -14 1 -9 7 -21 8 -37 2 -18 -7 -20 -10 -9 -15
128 -48 150 -54 150 -43 1 7 6 5 13 -5 13 -17 180 -71 185 -59 1 4 20 5 41 3
27 -3 38 -8 35 -17 -4 -9 27 -19 111 -35 64 -12 124 -19 132 -15 9 3 19 1 22
-4 17 -26 481 -41 682 -21 136 14 159 19 159 36 0 22 26 28 60 14 19 -8 47
-10 80 -5 46 6 50 9 45 28 -6 21 -5 21 8 4 14 -17 18 -17 78 -2 126 32 268 78
264 86 -3 4 0 11 6 15 8 4 9 3 5 -4 -4 -7 -5 -12 -1 -12 17 0 166 63 172 73 5
7 17 12 28 12 14 0 19 6 17 18 -3 15 0 17 14 9 10 -5 25 -6 33 -2 9 5 41 21
72 36 31 15 60 36 65 47 6 13 27 25 57 32 65 16 71 24 51 70 -12 29 -13 44 -5
62 6 13 15 23 20 23 13 0 22 -28 11 -35 -18 -11 -10 -25 15 -25 16 0 25 -6 25
-15 0 -21 4 -20 68 21 93 59 211 154 217 175 4 10 15 19 27 19 12 0 77 58 177
158 221 222 388 448 527 717 65 127 73 152 52 173 -17 17 -19 42 -2 42 8 0 13
-3 11 -8 -2 -7 6 -12 22 -12 14 0 44 84 32 88 -6 2 -8 9 -4 15 4 7 -1 6 -10
-2 -22 -18 -34 -7 -16 15 11 13 11 18 2 21 -7 3 -13 12 -13 21 1 15 2 15 11
-1 6 -9 15 -15 20 -11 6 3 16 -2 23 -11 10 -14 17 0 48 97 21 62 40 125 44
141 l6 27 714 0 c783 0 767 -1 798 59 12 23 16 60 15 153 0 68 -4 114 -8 104
-7 -19 -8 -19 -22 0 -8 11 -27 27 -42 37 -28 18 -28 37 -1 37 9 0 22 -7 30
-15 9 -8 22 -15 30 -15 13 0 15 33 13 230 -1 149 -5 232 -12 237 -5 3 -7 1 -4
-4 4 -6 -1 -14 -10 -17 -9 -4 -20 -1 -24 5 -10 16 18 42 36 35 13 -4 15 9 15
83 0 80 -2 89 -20 94 -12 3 -20 0 -20 -8 0 -7 -7 -16 -16 -19 -19 -7 -44 10
-44 31 0 7 -7 25 -16 38 -17 26 -10 32 15 16 9 -6 22 -6 34 1 16 8 18 7 12
-11 -4 -12 -2 -21 4 -21 6 0 11 5 11 10 0 6 8 10 18 8 16 -3 17 14 19 212 2
139 -1 225 -8 242 -21 52 -42 57 -226 58 -92 0 -177 -1 -187 -3 -26 -5 -32
-24 -9 -30 15 -4 14 -5 -4 -6 -12 0 -25 3 -28 9 -3 5 -20 7 -37 3 -26 -5 -30
-4 -24 13 6 18 -3 19 -267 17 -214 -2 -271 -6 -270 -16 2 -7 -6 -18 -17 -25
-13 -8 -20 -9 -20 -1 0 6 -8 8 -20 4 -15 -5 -21 -1 -25 17 l-6 23 -206 0 -205
0 -33 95 c-44 132 -107 276 -172 400 -81 152 -134 234 -143 219 -5 -6 -28 -13
-51 -15 -35 -3 -39 -2 -21 6 12 5 22 14 22 20 0 5 9 10 20 10 11 0 20 5 20 11
0 12 -152 220 -174 239 -12 9 -23 9 -52 0 -35 -12 -38 -11 -60 16 -20 24 -25
27 -34 14 -5 -8 -10 -23 -10 -32 0 -22 -33 -24 -50 -3 -10 12 -15 12 -38 -3
l-25 -16 6 37 c3 20 3 36 -1 36 -21 -3 -30 4 -34 26 -5 26 9 34 29 14 7 -7 13
-7 17 -1 3 6 2 13 -4 17 -22 14 -8 24 28 21 22 -3 43 2 53 10 18 16 45 10 53
-13 4 -9 -1 -17 -14 -20 -11 -3 -20 -10 -20 -15 0 -6 -7 -5 -15 2 -13 10 -15
9 -15 -9 0 -23 31 -42 38 -23 2 7 10 12 18 12 9 0 13 4 9 9 -3 5 -1 12 4 15
12 8 25 -30 15 -45 -4 -8 -3 -9 5 -5 6 4 17 3 24 -3 7 -5 19 -6 26 -2 24 15
-244 278 -428 421 l-44 34 -15 -22 c-20 -31 -30 -28 -50 16 -22 45 -31 48 -83
21 -23 -11 -42 -19 -42 -17 -1 2 -8 13 -14 25 -15 27 -2 38 42 35 68 -5 59 14
-31 71 -49 30 -93 52 -99 49 -5 -4 -16 -7 -24 -9 -19 -2 -39 -23 -23 -23 7 0
12 -4 12 -10 0 -10 8 -21 55 -73 12 -14 25 -32 28 -42 4 -9 11 -13 17 -10 11
7 15 -57 4 -68 -8 -8 -64 13 -64 24 0 5 -12 19 -26 31 -29 26 -74 110 -74 139
0 11 11 24 25 31 14 6 25 19 25 28 0 18 -39 40 -71 40 -11 0 -18 4 -15 9 3 5
-24 24 -61 41 -111 53 -348 140 -351 129 -8 -21 8 -37 42 -43 20 -4 36 -13 36
-20 0 -19 -27 -39 -41 -31 -6 4 -14 3 -18 -3 -3 -6 -18 -13 -32 -17 -22 -6
-27 -3 -33 19 -3 13 -2 36 4 51 12 32 12 38 1 31 -5 -3 -12 5 -15 19 -6 24
-26 35 -26 15 0 -6 -12 -2 -27 9 -30 21 -191 59 -363 86 -122 20 -578 29 -705
15z m-85 -38 c0 -4 -4 -21 -9 -38 -6 -21 -5 -36 5 -49 24 -33 18 -55 -15 -55
-21 0 -32 6 -36 21 -4 11 -4 23 -1 26 3 3 -4 19 -15 34 -15 22 -18 33 -10 46
8 14 10 15 11 3 0 -10 3 -11 8 -4 6 10 26 19 55 23 4 0 7 -2 7 -7z m784 -37
c3 -8 12 -12 20 -9 11 4 14 -3 13 -30 -1 -20 -6 -36 -11 -36 -13 0 -56 61 -56
78 0 17 27 15 34 -3z m-1112 -42 c13 -7 4 -43 -12 -44 -19 -2 -54 2 -58 6 -2
1 0 14 4 29 5 22 10 25 33 20 14 -4 29 -8 33 -11z m838 -23 c0 -5 -8 -10 -17
-10 -15 0 -16 2 -3 10 19 12 20 12 20 0z m499 -53 c-27 -25 -43 -10 -27 25 12
25 14 26 31 11 16 -16 16 -17 -4 -36z m149 21 c-6 -18 -28 -21 -28 -4 0 9 7
16 16 16 9 0 14 -5 12 -12z m-1255 -17 c3 -14 -5 -22 -35 -36 -22 -9 -42 -14
-46 -10 -4 4 -1 10 6 12 6 3 12 13 12 23 0 17 14 26 46 29 7 0 14 -7 17 -18z
m1152 -11 c3 -5 1 -10 -4 -10 -6 0 -11 5 -11 10 0 6 2 10 4 10 3 0 8 -4 11
-10z m-1422 -30 c10 0 17 -8 17 -20 0 -22 -10 -26 -28 -8 -8 8 -15 8 -25 -1
-11 -9 -17 -8 -27 4 -9 10 -9 15 -1 15 6 0 11 10 11 22 0 20 1 20 18 5 10 -10
26 -17 35 -17z m1467 20 c0 -5 -4 -10 -10 -10 -5 0 -10 5 -10 10 0 6 5 10 10
10 6 0 10 -4 10 -10z m10 -50 c0 -5 -2 -10 -4 -10 -3 0 -8 5 -11 10 -3 6 -1
10 4 10 6 0 11 -4 11 -10z m430 -42 c0 -13 -7 -18 -26 -18 -16 0 -24 -5 -21
-12 2 -7 16 -12 32 -11 27 2 27 2 9 -18 -12 -13 -27 -19 -48 -16 -38 4 -45 28
-15 56 12 11 19 26 16 34 -3 8 0 20 6 26 14 14 47 -14 47 -41z m-2356 13 c5
-1 1 -10 -9 -21 -16 -18 -20 -19 -35 -5 -9 8 -22 15 -29 15 -7 0 -10 4 -7 9 5
7 31 8 80 2z m2200 -16 c23 -18 14 -34 -18 -28 -13 3 -27 0 -31 -7 -8 -14 -35
5 -35 25 0 24 56 31 84 10z m271 -11 c16 -25 16 -26 -7 -22 -15 2 -24 11 -26
26 -4 30 12 28 33 -4z m-2565 -24 c0 -5 -2 -10 -4 -10 -3 0 -8 5 -11 10 -3 6
-1 10 4 10 6 0 11 -4 11 -10z m2307 -36 c-3 -3 -12 -4 -19 -1 -8 3 -5 6 6 6
11 1 17 -2 13 -5z m-2359 -59 c-2 -18 -8 -25 -24 -25 -30 0 -36 11 -17 32 23
26 43 23 41 -7z m-238 -61 c0 -8 -5 -12 -10 -9 -6 4 -8 11 -5 16 9 14 15 11
15 -7z m3260 -131 c0 -9 -8 -12 -27 -9 -16 2 -32 5 -37 5 -5 1 -3 7 3 15 14
17 61 9 61 -11z m25 -63 c3 -5 0 -10 -9 -10 -8 0 -16 -6 -19 -12 -2 -7 -8 -10
-12 -6 -11 11 2 38 19 38 8 0 18 -4 21 -10z m-3505 -45 c-7 -9 -15 -13 -17
-11 -7 7 7 26 19 26 6 0 6 -6 -2 -15z m58 -34 c-4 -32 -22 -34 -26 -3 -2 12
-8 20 -13 16 -6 -3 -5 3 2 14 17 27 41 9 37 -27z m397 39 c-3 -5 -11 -10 -16
-10 -6 0 -7 5 -4 10 3 6 11 10 16 10 6 0 7 -4 4 -10z m-361 -282 c8 -34 -12
-38 -40 -7 -18 20 -18 21 1 35 22 16 30 10 39 -28z m-384 -18 c0 -5 -2 -10 -4
-10 -3 0 -8 5 -11 10 -3 6 -1 10 4 10 6 0 11 -4 11 -10z m4360 -190 c0 -5 -5
-10 -11 -10 -5 0 -7 5 -4 10 3 6 8 10 11 10 2 0 4 -4 4 -10z m-4440 -25 c0
-29 -34 -36 -44 -9 -8 21 1 34 25 34 14 0 19 -7 19 -25z m-88 -10 c0 -5 -5
-11 -11 -13 -6 -2 -11 4 -11 13 0 9 5 15 11 13 6 -2 11 -8 11 -13z m4298 -4
c0 -5 -7 -11 -15 -15 -15 -5 -20 5 -8 17 9 10 23 9 23 -2z m-4253 -94 c-12
-53 -27 -63 -27 -17 0 16 -5 40 -11 54 -9 19 -8 27 2 39 12 12 16 11 30 -7 15
-19 16 -29 6 -69z m2017 -9 c5 -30 4 -38 -8 -38 -17 0 -21 5 -30 42 -5 20 -2
27 11 30 22 5 19 9 27 -34z m430 16 c8 -3 12 -12 9 -20 -4 -11 -9 -12 -19 -3
-8 6 -14 15 -14 20 0 11 3 11 24 3z m-606 -32 c2 -7 -6 -12 -17 -12 -21 0 -27
11 -14 24 9 9 26 2 31 -12z m721 -28 c-14 -18 -24 -11 -15 11 3 9 11 13 16 10
8 -5 7 -11 -1 -21z m-599 -4 c0 -5 -2 -10 -4 -10 -2 0 -12 -3 -20 -6 -12 -5
-15 -2 -10 10 7 17 34 22 34 6z m-130 -32 c0 -10 -34 -5 -37 5 -8 21 -1 26 17
15 11 -7 20 -16 20 -20z m1010 -25 c0 -13 -3 -13 -15 -3 -8 7 -12 16 -9 21 8
13 24 1 24 -18z m-2730 -5 c0 -14 -18 -17 -28 -5 -8 10 -6 13 9 13 10 0 19 -4
19 -8z m1462 0 c-9 -9 -15 -9 -24 0 -9 9 -7 12 12 12 19 0 21 -3 12 -12z
m1186 3 c10 -6 8 -10 -9 -14 -28 -7 -46 2 -28 14 17 11 21 11 37 0z m152 -12
c0 -5 -4 -9 -10 -9 -5 0 -10 7 -10 16 0 8 5 12 10 9 6 -3 10 -10 10 -16z
m-850 -4 c19 -23 8 -26 -20 -5 -19 15 -21 20 -9 20 9 0 22 -7 29 -15z m770
-19 c-5 -5 -16 -6 -25 -2 -14 5 -15 9 -5 21 9 11 15 12 25 2 7 -7 10 -16 5
-21z m-1330 -36 c0 -5 -7 -10 -15 -10 -8 0 -15 5 -15 10 0 6 7 10 15 10 8 0
15 -4 15 -10z m-1670 -110 c0 -11 -7 -20 -15 -20 -17 0 -18 2 -9 24 9 23 24
20 24 -4z m3290 10 c0 -5 -7 -10 -15 -10 -8 0 -15 5 -15 10 0 6 7 10 15 10 8
0 15 -4 15 -10z m1550 -10 c0 -11 -7 -20 -15 -20 -8 0 -15 9 -15 20 0 11 7 20
15 20 8 0 15 -9 15 -20z m-1540 -24 c0 -3 -4 -8 -10 -11 -5 -3 -10 -1 -10 4 0
6 5 11 10 11 6 0 10 -2 10 -4z m-1845 -35 c3 -5 1 -12 -4 -15 -5 -3 -11 1 -15
9 -6 16 9 21 19 6z m3526 -118 c0 -12 2 -13 6 -5 8 22 33 -7 33 -39 0 -32 -12
-43 -39 -34 -28 9 -37 95 -10 95 5 0 9 -8 10 -17z m-3691 -5 c0 -6 -3 -8 -7
-5 -3 4 -12 2 -20 -4 -13 -11 -19 2 -6 14 11 11 33 8 33 -5z m180 -13 c0 -8
-4 -15 -9 -15 -13 0 -22 16 -14 24 11 11 23 6 23 -9z m3544 -111 c3 -8 2 -12
-4 -9 -6 3 -10 10 -10 16 0 14 7 11 14 -7z m-3794 -20 c0 -8 -4 -12 -10 -9 -5
3 -10 10 -10 16 0 5 5 9 10 9 6 0 10 -7 10 -16z m-18 -29 c0 -5 -5 -11 -11
-13 -6 -2 -11 4 -11 13 0 9 5 15 11 13 6 -2 11 -8 11 -13z m3824 3 c7 -8 -11
-91 -22 -95 -6 -2 -10 13 -10 34 0 20 -5 38 -12 41 -24 8 -12 29 14 26 14 -1
28 -4 30 -6z m-4006 -48 c0 -5 -2 -10 -4 -10 -3 0 -8 5 -11 10 -3 6 -1 10 4
10 6 0 11 -4 11 -10z m-14 -31 c19 -22 19 -22 -9 -15 -27 7 -28 6 -21 -29 7
-37 5 -39 -20 -29 -21 8 -20 52 1 76 21 23 26 23 49 -3z m4830 7 c20 -21 17
-29 -7 -23 -19 5 -21 2 -16 -22 7 -32 1 -42 -19 -34 -19 7 -18 52 3 75 19 22
21 22 39 4z m-5746 -21 c0 -14 -4 -25 -10 -25 -11 0 -14 33 -3 43 11 11 13 8
13 -18z m4366 4 c3 -6 1 -16 -5 -22 -6 -6 -11 -21 -11 -34 0 -14 -6 -23 -15
-23 -18 0 -18 2 -3 51 11 40 21 48 34 28z m44 -20 c0 -5 -4 -9 -10 -9 -5 0
-10 7 -10 16 0 8 5 12 10 9 6 -3 10 -10 10 -16z m-4120 -3 c0 -11 -19 -15 -25
-6 -3 5 1 10 9 10 9 0 16 -2 16 -4z m4830 -6 c0 -5 -2 -10 -4 -10 -3 0 -8 5
-11 10 -3 6 -1 10 4 10 6 0 11 -4 11 -10z m-4868 -32 c-7 -7 -12 -8 -12 -2 0
6 3 14 7 17 3 4 9 5 12 2 2 -3 -1 -11 -7 -17z m981 8 c7 -18 -1 -26 -25 -26
-16 0 -17 3 -8 20 13 23 26 26 33 6z m3697 -7 c0 -6 -4 -7 -10 -4 -5 3 -10 11
-10 16 0 6 5 7 10 4 6 -3 10 -11 10 -16z m1143 7 c7 -17 -1 -26 -24 -26 -12 0
-16 6 -12 20 6 23 28 27 36 6z m459 -28 c20 -16 24 -45 11 -77 -13 -31 -28
-10 -18 26 5 20 3 24 -9 20 -9 -4 -16 -2 -16 2 0 5 -3 16 -6 25 -7 19 15 21
38 4z m38 -292 c-5 -15 -14 -24 -20 -21 -6 4 -4 16 6 31 21 31 28 26 14 -10z
m-37 -306 c-3 -11 -9 -20 -14 -20 -10 0 -12 24 -2 33 13 13 21 7 16 -13z m34
-75 c0 -18 -13 -34 -27 -35 -3 0 -4 18 -2 40 3 31 7 37 16 27 7 -7 13 -21 13
-32z m-8487 -205 c0 -5 -7 -10 -15 -10 -8 0 -15 5 -15 10 0 6 7 10 15 10 8 0
15 -4 15 -10z m8433 -210 c3 -11 1 -20 -4 -20 -5 0 -9 9 -9 20 0 11 2 20 4 20
2 0 6 -9 9 -20z m-8453 -117 c-1 -20 -18 -33 -35 -27 -17 7 -17 8 1 21 20 14
34 17 34 6z m3490 -83 c0 -5 -5 -10 -11 -10 -5 0 -7 5 -4 10 3 6 8 10 11 10 2
0 4 -4 4 -10z m1329 -11 c27 -25 16 -43 -21 -34 -20 5 -24 11 -20 31 5 29 12
30 41 3z m3511 11 c0 -5 -5 -10 -11 -10 -5 0 -7 5 -4 10 3 6 8 10 11 10 2 0 4
-4 4 -10z m-8130 -35 c14 -17 35 -21 25 -5 -3 6 3 10 14 10 11 0 23 -5 27 -11
9 -16 -17 -30 -41 -23 -11 3 -26 6 -32 6 -7 1 -13 5 -13 10 0 4 -9 8 -21 8
-11 0 -17 5 -14 10 9 15 41 12 55 -5z m4897 -15 c4 -13 3 -13 -6 0 -9 13 -11
13 -11 -2 0 -22 -7 -22 -40 -2 -23 14 -23 14 -2 9 13 -4 22 -2 22 5 0 17 33 8
37 -10z m-2829 -17 c5 -34 -31 -48 -68 -26 -17 9 -30 25 -30 34 0 13 9 16 48
15 40 -1 47 -4 50 -23z m2412 13 c0 -8 9 -18 21 -21 12 -4 18 -12 15 -21 -3
-7 3 -18 12 -23 14 -9 13 -10 -10 -11 -15 0 -30 5 -33 10 -4 6 -23 9 -43 6
-74 -8 -85 23 -19 53 52 24 57 25 57 7z m2428 -7 c4 -21 -31 -51 -52 -43 -12
4 -15 13 -10 28 6 19 5 19 -10 7 -12 -10 -20 -11 -28 -3 -18 18 -1 28 49 27
35 0 49 -4 51 -16z m-4468 1 c0 -5 -11 -9 -25 -8 -14 1 -25 6 -25 10 0 4 11 8
25 8 14 0 25 -4 25 -10z m2105 0 c-3 -5 -1 -10 5 -10 6 0 8 -5 5 -10 -4 -6
-11 -8 -16 -5 -12 8 -11 35 2 35 5 0 7 -4 4 -10z m2735 0 c0 -5 -13 -8 -29 -7
-16 1 -27 5 -24 10 6 10 53 9 53 -3z m-7322 -24 c-7 -8 -15 -12 -17 -11 -5 6
10 25 20 25 5 0 4 -6 -3 -14z m3678 -11 c10 -8 14 -15 7 -15 -6 0 -10 -8 -9
-17 3 -17 28 -18 339 -21 186 -1 337 1 337 5 0 13 -14 29 -35 42 -19 11 -19
12 3 6 13 -4 22 -2 22 4 0 14 40 14 60 1 13 -8 12 -11 -7 -16 -11 -3 -23 -14
-26 -25 -4 -16 0 -19 29 -19 20 0 34 5 34 12 0 9 3 9 12 0 9 -9 71 -12 217
-12 231 0 285 5 277 27 -4 8 -1 11 5 8 6 -4 8 -13 5 -21 -4 -12 17 -14 125
-14 l131 0 -51 -65 c-28 -35 -51 -71 -51 -80 0 -8 -3 -15 -7 -15 -5 0 -53 -39
-108 -86 -104 -89 -240 -179 -335 -222 -78 -35 -212 -84 -232 -85 -19 -1 -26
-17 -8 -17 6 0 10 -9 10 -19 0 -19 1 -19 62 0 93 28 93 28 80 41 -17 17 -15
25 7 31 26 6 33 -1 20 -25 -10 -18 -9 -19 19 -4 16 8 32 25 35 37 3 12 10 18
16 14 6 -3 9 -11 6 -16 -10 -16 8 -9 80 29 39 20 70 42 70 47 0 6 6 19 12 30
11 18 12 18 13 3 0 -22 4 -22 35 -2 20 13 23 20 14 35 -7 15 -6 19 5 19 8 0
16 -6 18 -12 5 -15 41 10 126 87 32 29 51 53 48 62 -4 8 5 18 21 26 30 13 75
59 95 96 7 14 23 36 36 49 12 14 22 29 22 33 0 5 7 9 16 9 13 0 13 -4 -3 -31
-54 -92 -170 -221 -281 -312 -35 -28 -59 -53 -53 -55 6 -2 11 -13 11 -25 l-1
-22 -18 22 -18 21 -29 -23 c-16 -14 -24 -25 -19 -25 6 -1 -1 -6 -15 -12 -14
-6 -28 -10 -33 -10 -13 3 -87 -48 -88 -61 -1 -6 0 -22 1 -34 1 -13 -4 -23 -10
-23 -7 0 -9 7 -6 17 7 16 -9 33 -31 33 -7 0 -21 -9 -32 -21 -11 -12 -24 -18
-30 -15 -5 4 -27 0 -48 -8 -174 -67 -437 -101 -623 -81 -100 11 -112 13 -149
21 -25 5 -32 4 -27 -4 4 -7 1 -12 -8 -12 -9 0 -13 6 -10 14 3 9 -6 15 -27 20
-40 8 -47 1 -24 -24 11 -13 15 -25 10 -37 -7 -16 -8 -16 -12 -1 -4 17 -30 31
-43 23 -4 -2 -20 14 -34 36 -21 32 -30 38 -41 29 -8 -7 -15 -7 -19 -1 -3 5 -1
11 4 13 6 2 -29 21 -77 43 -96 42 -249 137 -328 204 -28 23 -58 40 -69 39 -11
-2 -21 3 -23 10 -3 6 1 12 8 12 8 0 6 7 -6 20 -26 29 -35 25 -29 -12 l5 -33
-19 23 c-11 12 -25 22 -31 22 -19 0 -61 23 -61 34 0 7 -12 25 -27 42 -16 18
-29 35 -30 40 -1 5 -5 17 -8 27 -6 13 -3 16 8 11 9 -3 19 -19 22 -35 6 -27 25
-41 25 -19 0 6 5 10 11 10 6 0 9 -7 5 -15 -3 -9 0 -15 9 -15 9 0 15 -10 15
-26 0 -20 4 -25 16 -20 9 3 20 6 25 6 17 0 9 15 -52 90 -33 41 -66 74 -73 72
-14 -2 -29 35 -20 50 12 19 35 5 65 -39 50 -74 91 -118 107 -115 8 2 11 -1 7
-8 -7 -11 125 -150 144 -150 11 0 15 13 11 40 -3 23 -92 110 -113 110 -12 0
-17 5 -14 14 3 8 -18 44 -49 83 l-54 68 299 3 299 2 17 26 c14 21 43 41 66 43
3 1 14 -6 25 -14z m-2626 -10 c0 -17 -46 -39 -61 -29 -16 9 -10 24 10 24 11 0
23 5 26 10 9 15 25 12 25 -5z m4828 -21 c-11 -10 -51 -8 -55 4 -3 7 4 12 16
12 11 0 23 6 28 13 5 9 9 7 11 -6 2 -10 2 -20 0 -23z m832 -39 c33 -19 50 -19
50 0 0 11 12 15 46 15 41 0 45 -2 42 -22 -3 -20 -9 -23 -50 -22 -33 0 -48 -4
-48 -13 0 -12 -18 -18 -47 -14 -7 1 -13 -3 -13 -8 0 -6 -10 -15 -21 -22 -20
-10 -21 -9 -14 12 6 20 10 43 14 82 1 10 13 8 41 -8z m-3852 -83 c-2 -9 -13
-17 -25 -18 -23 -1 -22 21 3 30 8 3 11 13 8 23 -5 17 -5 17 6 0 6 -10 10 -25
8 -35z m2336 26 c-8 -27 -12 -33 -19 -27 -7 8 7 49 17 49 5 0 6 -10 2 -22z
m165 -22 c-2 -2 -14 -7 -26 -10 -20 -6 -23 -4 -23 17 0 34 11 40 33 16 10 -11
17 -22 16 -23z m-2368 11 c-10 -9 -11 -8 -5 6 3 10 9 15 12 12 3 -3 0 -11 -7
-18z m-1486 -17 c3 -5 -1 -10 -10 -10 -9 0 -13 5 -10 10 3 6 8 10 10 10 2 0 7
-4 10 -10z m5233 -28 c3 -17 -2 -22 -17 -22 -24 0 -48 36 -28 44 23 9 42 1 45
-22z m-88 -7 c0 -8 -4 -15 -10 -15 -5 0 -10 7 -10 15 0 8 5 15 10 15 6 0 10
-7 10 -15z m51 -42 c10 -11 11 -17 3 -20 -7 -2 -10 -12 -7 -22 3 -10 0 -22 -6
-25 -5 -4 -8 -13 -4 -21 3 -8 0 -15 -6 -15 -6 0 -11 15 -11 34 0 19 -4 38 -10
41 -5 3 -10 15 -10 26 0 24 32 26 51 2z m-5285 -91 c-12 -13 -18 -13 -31 -2
-14 11 -13 14 2 25 26 19 51 -2 29 -23z m1534 14 c0 -3 -4 -8 -10 -11 -5 -3
-10 -1 -10 4 0 6 5 11 10 11 6 0 10 -2 10 -4z m2020 -56 c0 -5 -4 -10 -10 -10
-5 0 -10 5 -10 10 0 6 5 10 10 10 6 0 10 -4 10 -10z m138 -15 c-6 -13 -15 -22
-19 -19 -15 9 -10 32 9 37 9 3 18 5 19 6 2 0 -2 -10 -9 -24z m-3418 -205 c0
-11 -7 -20 -15 -20 -17 0 -18 2 -9 24 9 23 24 20 24 -4z m4840 0 c0 -11 -7
-20 -15 -20 -8 0 -15 9 -15 20 0 11 7 20 15 20 8 0 15 -9 15 -20z m-1812 -102
c-4 -29 -25 -35 -22 -6 3 29 2 28 15 28 6 0 9 -10 7 -22z m-351 -44 c-3 -3
-12 -4 -19 -1 -8 3 -5 6 6 6 11 1 17 -2 13 -5z m-627 -33 c0 -6 -4 -13 -10
-16 -5 -3 -10 1 -10 9 0 9 5 16 10 16 6 0 10 -4 10 -9z m505 -17 c-18 -13 -35
-11 -35 5 0 5 12 9 27 9 25 0 25 -1 8 -14z m-100 -34 c3 -5 -1 -10 -9 -10 -9
0 -16 5 -16 10 0 6 4 10 9 10 6 0 13 -4 16 -10z m-2365 -25 c0 -14 -4 -25 -10
-25 -11 0 -14 33 -3 43 11 11 13 8 13 -18z m4365 6 c3 -5 1 -20 -4 -33 -5 -13
-12 -32 -16 -42 -4 -13 -9 -16 -16 -9 -7 7 -7 23 2 52 12 40 22 50 34 32z
m275 -22 c-10 -17 -8 -21 10 -26 29 -8 20 -27 -14 -31 -22 -3 -27 -8 -23 -23
6 -24 -1 -24 -22 0 -12 13 -15 32 -13 60 4 39 6 41 38 41 32 0 34 -2 24 -21z
m-4630 -80 c-14 -33 -22 -36 -40 -14 -10 12 -16 13 -26 4 -8 -6 -14 -8 -14 -3
1 13 37 54 47 54 5 0 15 9 23 21 15 20 15 20 18 -6 2 -15 -2 -40 -8 -56z m280
77 c0 -11 -19 -15 -25 -6 -3 5 1 10 9 10 9 0 16 -2 16 -4z m-38 -38 c-7 -7
-12 -8 -12 -2 0 14 12 26 19 19 2 -3 -1 -11 -7 -17z m-162 2 c0 -5 -2 -10 -4
-10 -3 0 -8 5 -11 10 -3 6 -1 10 4 10 6 0 11 -4 11 -10z m100 -129 c0 -5 -6
-14 -14 -20 -16 -13 -32 2 -21 19 8 12 35 13 35 1z m-12 -190 c-7 -11 -16 -17
-20 -14 -10 5 10 33 23 33 5 0 4 -9 -3 -19z m102 -41 c8 -5 11 -12 7 -16 -4
-4 -15 0 -24 9 -18 18 -8 23 17 7z m3934 -21 c7 -22 -6 -72 -29 -107 -1 -1
-10 0 -19 4 -10 4 -16 18 -16 41 0 33 2 35 25 29 14 -4 25 -4 25 -2 0 2 3 12
7 22 5 13 3 16 -9 12 -20 -8 -42 7 -33 21 11 19 39 8 49 -20z m-3969 -29 c3
-5 1 -10 -4 -10 -6 0 -11 5 -11 10 0 6 2 10 4 10 3 0 8 -4 11 -10z m3693 -7
c-5 -25 -28 -28 -28 -4 0 12 6 21 16 21 9 0 14 -7 12 -17z m-28 -193 c0 -16 0
-33 1 -37 2 -19 -19 -10 -39 17 -26 35 -22 50 14 50 20 0 24 -5 24 -30z m214
-9 c3 -5 -5 -11 -19 -13 -24 -5 -32 2 -18 15 9 10 31 9 37 -2z m-876 -213
c-24 -49 -48 -52 -70 -11 -10 18 -18 35 -18 37 0 5 45 12 80 11 l26 0 -18 -37z
m-188 -22 c0 -3 -4 -8 -10 -11 -5 -3 -10 -1 -10 4 0 6 5 11 10 11 6 0 10 -2
10 -4z m442 -46 c-3 -26 -9 -40 -18 -40 -16 0 -18 19 -4 54 14 39 26 31 22
-14z m-82 -80 c0 -5 -4 -10 -10 -10 -5 0 -10 5 -10 10 0 6 5 10 10 10 6 0 10
-4 10 -10z m62 -30 c-3 -23 -26 -50 -42 -50 -5 0 -6 63 -1 78 1 2 11 2 24 0
17 -2 21 -8 19 -28z m-1764 -32 c18 -18 15 -23 -13 -24 -23 -2 -33 14 -18 29
9 10 17 9 31 -5z m1102 -49 c0 -11 -21 -11 -39 0 -9 6 -5 9 13 9 14 0 26 -4
26 -9z m-1480 -34 c0 -8 -4 -15 -9 -15 -5 0 -11 7 -15 15 -3 9 0 15 9 15 8 0
15 -7 15 -15z m1450 6 c0 -12 -39 -21 -58 -13 -13 5 -10 8 13 13 44 10 45 10
45 0z m-1132 -43 c2 -9 -5 -18 -14 -22 -22 -8 -24 -5 -17 22 6 25 26 25 31 0z
m940 -2 c5 9 14 14 21 10 8 -5 6 -12 -5 -24 -20 -19 -67 -45 -59 -32 3 5 -3
15 -13 21 -15 9 -17 15 -8 24 8 10 16 9 33 -2 19 -13 22 -12 31 3z m-197 -76
c26 -14 24 -32 -3 -28 -13 2 -24 11 -26 21 -4 20 2 21 29 7z m72 -45 c-3 -8
-9 -15 -14 -15 -10 0 -12 24 -3 33 11 11 24 -3 17 -18z"/>
<path d="M5936 3231 c-3 -5 1 -11 9 -15 9 -3 15 0 15 9 0 16 -16 20 -24 6z"/>
<path d="M5534 2886 c-1 -31 4 -37 75 -84 42 -28 87 -56 101 -62 14 -5 33 -14
43 -20 43 -25 54 -31 86 -45 18 -8 43 -15 54 -15 11 0 28 -6 36 -14 9 -8 28
-18 44 -21 21 -6 27 -4 27 9 0 9 5 16 11 16 5 0 7 -4 4 -10 -3 -5 -1 -10 5
-10 6 0 9 -4 5 -9 -7 -12 6 -15 115 -36 47 -9 143 -19 213 -22 125 -6 128 -6
134 15 6 25 23 30 23 7 0 -18 29 -19 117 -4 62 11 63 12 61 41 -2 24 -6 28
-23 23 -49 -14 -190 -25 -303 -24 -68 1 -126 -2 -129 -5 -3 -3 -12 -1 -19 5
-7 6 -52 19 -101 29 -48 10 -126 32 -173 49 -46 17 -93 29 -105 26 -11 -3 -14
-2 -7 1 15 7 6 24 -14 24 -8 0 -14 -7 -14 -15 0 -25 -17 -17 -28 14 -6 18 -24
37 -44 47 -18 9 -52 30 -75 45 -23 16 -44 25 -48 20 -6 -10 -51 -8 -62 2 -3 4
6 7 20 7 34 0 34 13 2 34 -31 21 -30 21 -31 -18z m200 -122 c5 -12 2 -15 -10
-10 -8 3 -20 6 -25 6 -6 0 -7 5 -4 10 10 15 32 12 39 -6z m146 -80 c0 -11 -5
-14 -16 -10 -9 3 -18 6 -20 6 -3 0 -2 5 1 10 10 16 35 12 35 -6z m790 -74 c0
-5 -5 -10 -11 -10 -5 0 -7 5 -4 10 3 6 8 10 11 10 2 0 4 -4 4 -10z"/>
<path d="M5952 2582 c7 -9 13 -18 14 -20 1 -2 4 4 7 12 3 8 -2 16 -14 19 -17
5 -18 3 -7 -11z"/>
<path d="M8990 3180 c0 -13 28 -25 38 -16 3 4 0 11 -8 16 -20 13 -30 12 -30 0z"/>
<path d="M8055 6290 c3 -5 11 -10 16 -10 6 0 7 5 4 10 -3 6 -11 10 -16 10 -6
0 -7 -4 -4 -10z"/>
<path d="M5715 6150 c-9 -27 -14 -59 -10 -70 4 -13 2 -20 -6 -20 -7 0 -4 -6 7
-14 13 -10 21 -11 25 -4 4 6 6 0 6 -14 -2 -19 -6 -23 -24 -20 -15 3 -25 -1
-28 -12 -17 -52 -14 -51 -40 -26 -29 28 -32 45 -8 59 10 5 16 11 13 14 -33 27
-123 88 -126 84 -3 -2 7 -40 21 -83 13 -44 25 -82 25 -86 0 -5 -19 -8 -42 -8
-48 0 -78 -13 -58 -25 6 -4 9 -14 5 -23 -4 -11 4 -25 26 -42 l31 -26 -73 -55
-73 -54 92 -3 c51 -1 92 -6 92 -10 0 -4 -12 -42 -26 -85 -14 -43 -24 -81 -21
-83 3 -3 36 18 74 45 38 28 72 51 76 51 3 0 8 -13 12 -30 7 -33 14 -37 33 -18
9 9 12 9 12 -3 0 -12 1 -12 9 1 6 8 7 18 5 22 -3 4 -1 8 5 8 5 0 14 -8 20 -17
8 -16 11 -15 20 10 l11 27 37 -24 c42 -26 89 -40 97 -28 2 4 -4 34 -15 67 -10
32 -19 60 -19 62 0 1 44 3 97 3 l97 0 -34 25 c-19 14 -38 25 -42 25 -5 0 -24
15 -43 34 l-34 34 77 56 77 56 -98 0 c-53 0 -97 1 -97 3 0 1 11 37 24 79 14
45 20 80 15 84 -11 6 -69 -33 -69 -47 0 -5 -15 -15 -32 -23 -30 -12 -35 -12
-54 8 -12 11 -19 27 -16 34 5 15 -17 100 -29 107 -4 3 -15 -17 -24 -45z m15
-190 c0 -5 -4 -10 -10 -10 -5 0 -10 5 -10 10 0 6 5 10 10 10 6 0 10 -4 10 -10z"/>
<path d="M6916 6115 c-15 -47 -29 -85 -31 -85 -3 0 -36 23 -75 51 -39 29 -73
50 -75 47 -3 -2 6 -38 20 -78 14 -40 25 -79 25 -87 0 -10 -22 -13 -92 -13
l-93 0 30 -25 c17 -13 35 -25 40 -25 6 0 25 -16 44 -34 l33 -34 -71 -54 -72
-53 91 -3 c65 -2 90 -6 90 -16 0 -7 -11 -46 -25 -86 -14 -40 -23 -75 -20 -78
4 -5 103 63 120 83 6 6 24 16 40 22 22 7 30 16 29 32 0 17 4 21 19 19 11 -2
22 -9 25 -17 3 -9 0 -11 -8 -6 -8 5 -11 4 -7 -3 10 -15 -3 -42 -19 -42 -23 0
-27 -45 -8 -104 10 -31 21 -56 25 -56 3 0 14 26 23 58 9 31 22 70 29 85 l12
28 73 -52 c40 -28 75 -50 76 -48 2 2 -9 41 -24 86 -15 46 -25 85 -22 88 3 3
20 5 39 5 36 0 42 14 18 46 -20 27 -19 45 3 37 15 -6 15 -4 -3 16 -12 14 -15
25 -9 29 47 32 134 96 134 98 0 2 -20 4 -45 4 -41 0 -45 -2 -45 -24 0 -14 -5
-28 -10 -31 -15 -9 -51 4 -49 18 3 26 -2 35 -22 40 -12 3 -18 10 -15 15 12 19
53 162 47 162 -4 0 -38 -22 -76 -50 -38 -27 -72 -45 -75 -40 -3 5 -17 44 -31
85 -13 41 -26 75 -29 75 -3 0 -18 -38 -34 -85z m204 -220 c0 -14 -4 -25 -10
-25 -11 0 -14 33 -3 43 11 11 13 8 13 -18z m-200 -16 c-10 -17 -8 -21 10 -26
29 -8 20 -27 -14 -31 -22 -3 -27 -8 -23 -23 5 -18 3 -18 -11 -7 -26 20 -28 25
-24 68 4 38 6 40 38 40 32 0 34 -2 24 -21z m208 -79 c-15 -34 -20 -36 -38 -15
-10 12 -16 13 -26 4 -8 -6 -14 -8 -14 -3 1 13 37 54 47 54 5 0 15 9 23 21 15
20 15 20 18 -6 2 -14 -3 -39 -10 -55z m-115 -74 c6 -16 -2 -28 -14 -20 -12 7
-11 34 0 34 5 0 11 -6 14 -14z"/>
<path d="M8070 5826 c0 -9 5 -16 11 -16 6 0 9 -7 5 -15 -3 -8 -1 -15 5 -15 14
0 7 53 -8 58 -7 2 -13 -3 -13 -12z"/>
<path d="M4351 5774 c0 -11 3 -14 6 -6 3 7 2 16 -1 19 -3 4 -6 -2 -5 -13z"/>
<path d="M7220 5762 c0 -27 20 -42 55 -42 l30 0 -25 21 c-46 37 -60 42 -60 21z"/>
<path d="M4846 5680 c-26 -68 -34 -106 -26 -114 13 -13 13 -29 0 -21 -17 10
-11 -6 8 -24 26 -24 24 -37 -6 -36 -18 0 -26 -5 -24 -14 1 -7 -2 -19 -9 -27
-9 -11 -14 -10 -30 10 -23 29 -25 56 -4 56 8 0 15 4 15 9 0 10 -31 25 -45 22
-5 -2 -7 1 -3 5 4 4 -14 22 -39 40 -26 18 -48 32 -49 31 -2 -1 10 -41 25 -87
l28 -85 -48 -5 c-56 -6 -67 -14 -49 -36 11 -13 11 -17 1 -23 -9 -6 -3 -16 23
-36 l36 -27 -76 -57 -77 -56 98 -3 c87 -2 96 -5 90 -20 -19 -48 -52 -162 -47
-162 3 0 21 12 41 28 48 36 101 72 107 72 3 0 10 -13 15 -30 11 -29 29 -41 29
-19 0 6 7 9 15 5 9 -3 15 0 15 9 0 20 10 19 26 -2 11 -15 13 -15 14 -3 1 39
17 43 56 16 37 -25 94 -36 94 -18 0 5 -7 31 -15 58 -8 27 -15 52 -15 57 0 4
42 7 93 7 l92 1 -28 24 c-15 14 -33 25 -40 25 -7 0 -27 16 -46 35 -39 40 -44
31 58 102 50 35 52 38 30 44 -13 4 -54 7 -91 8 -38 1 -68 5 -68 9 0 5 9 35 20
67 23 65 25 85 10 85 -17 0 -70 -43 -70 -57 0 -7 -6 -10 -15 -7 -8 4 -15 1
-15 -4 0 -19 -34 -17 -55 3 -14 13 -18 25 -12 35 5 9 1 36 -11 70 -12 34 -22
49 -26 40z m4 -234 c0 -3 -4 -8 -10 -11 -5 -3 -10 -1 -10 4 0 6 5 11 10 11 6
0 10 -2 10 -4z"/>
<path d="M7915 5610 c-35 -107 -33 -105 -57 -83 -19 17 -20 17 -29 0 -12 -21
-29 -13 -29 13 0 12 -8 20 -22 22 -15 2 -22 9 -20 19 1 9 -5 22 -13 29 -12 10
-15 10 -15 -2 0 -34 45 -145 68 -166 20 -19 23 -29 17 -59 -6 -35 -25 -73 -35
-73 -3 0 -9 4 -15 8 -26 19 -13 76 15 67 11 -4 20 1 24 11 8 20 -2 33 -12 16
-6 -8 -12 -6 -22 8 -15 21 -59 25 -135 12 l-39 -7 73 -54 74 -54 -24 -18 c-13
-11 -45 -34 -71 -51 -26 -18 -48 -36 -48 -40 0 -5 41 -8 90 -8 l90 0 -6 -25
c-5 -19 -2 -25 10 -25 14 0 14 -3 4 -20 -7 -11 -18 -20 -24 -20 -9 0 -34 -61
-34 -84 0 -14 70 41 82 64 9 18 22 25 44 26 30 2 31 0 58 -82 15 -46 29 -84
31 -84 2 0 16 38 31 85 25 76 30 84 49 79 11 -4 24 -12 28 -18 6 -7 7 -5 4 6
-8 22 12 36 46 32 25 -2 27 0 21 19 -12 36 -10 49 8 61 14 8 23 8 37 -1 14 -9
21 -9 30 0 8 8 11 8 11 -1 0 -7 16 -12 40 -12 22 0 40 3 40 8 -1 4 -32 29 -70
56 -38 27 -67 52 -65 57 3 4 35 29 71 56 60 44 63 48 42 54 -13 4 -54 7 -92 8
-54 1 -67 4 -63 15 12 30 47 149 47 157 0 6 -34 -15 -75 -45 -69 -52 -75 -54
-85 -37 -5 11 -10 26 -11 33 0 7 -10 40 -23 73 l-23 60 -28 -85z m160 -341
c-9 -13 9 -11 23 3 7 7 12 10 13 8 0 -3 2 -15 4 -26 4 -18 0 -21 -25 -20 -18
1 -36 10 -46 24 -19 28 -10 46 17 32 11 -6 17 -15 14 -21z m15 -59 c-8 -6 -11
-10 -7 -10 5 0 5 -5 1 -11 -4 -8 -10 -7 -18 1 -8 8 -6 15 8 26 11 7 22 11 25
8 3 -3 -1 -9 -9 -14z"/>
<path d="M4150 5671 c0 -12 29 -23 42 -15 6 4 5 10 -3 15 -18 11 -39 11 -39 0z"/>
<path d="M5722 5547 c-8 -9 -6 -16 8 -25 21 -13 35 -1 26 23 -7 18 -20 19 -34
2z"/>
<path d="M8100 5072 c0 -9 25 -33 48 -46 18 -10 15 19 -4 38 -16 17 -44 22
-44 8z"/>
<path d="M4841 5031 c-12 -8 -11 -12 3 -27 15 -14 19 -15 27 -3 5 8 7 18 6 23
-5 14 -20 17 -36 7z"/>
<path d="M7320 5013 c0 -6 5 -15 11 -19 6 -3 9 -19 7 -34 -3 -21 6 -39 46 -83
50 -54 52 -56 80 -44 l30 13 -87 89 c-48 50 -87 85 -87 78z"/>
<path d="M3860 4830 c0 -5 5 -10 10 -10 6 0 10 5 10 10 0 6 -4 10 -10 10 -5 0
-10 -4 -10 -10z"/>
<path d="M2644 4764 c-33 -43 -31 -58 5 -51 36 8 56 -13 47 -48 l-6 -25 140 0
141 0 -31 30 c-32 32 -32 55 1 45 39 -13 39 8 -1 27 -29 14 -39 25 -35 37 4
14 -9 16 -117 16 l-121 0 -23 -31z m196 -63 c0 -6 12 -9 27 -8 18 1 28 -3 31
-14 2 -13 -6 -17 -40 -17 -23 -1 -48 4 -55 10 -22 18 -15 38 12 38 14 0 25 -4
25 -9z"/>
<path d="M6850 4780 c0 -14 -1 -44 0 -67 0 -24 -4 -43 -10 -43 -5 0 -10 -7
-10 -15 0 -12 14 -15 65 -15 65 0 66 0 54 22 -12 22 -12 22 -19 3 -7 -18 -9
-18 -15 -3 -9 22 1 38 26 38 10 0 19 5 19 11 0 7 -10 9 -25 5 l-24 -6 15 36
c18 44 7 56 -37 44 -19 -6 -29 -4 -33 3 -2 7 -5 1 -6 -13z"/>
<path d="M6964 4789 c-2 -3 7 -12 20 -18 12 -7 30 -29 39 -49 15 -32 15 -39 2
-59 l-15 -23 129 0 c76 0 132 4 136 10 3 6 19 10 36 10 16 0 29 -4 29 -10 0
-5 24 -10 53 -10 34 0 47 3 38 9 -8 5 -20 7 -27 4 -24 -9 -23 15 1 31 20 13
25 25 25 56 0 29 4 40 15 40 8 0 15 3 15 8 0 8 -490 10 -496 1z"/>
<path d="M7500 4786 c-18 -13 -40 -51 -40 -67 0 -7 11 -8 30 -4 26 6 30 3 37
-22 4 -15 6 -34 5 -40 -2 -10 31 -13 138 -13 l141 0 -31 30 c-34 33 -32 53 5
44 41 -10 34 11 -11 31 -41 18 -57 35 -34 35 6 0 10 4 10 8 0 14 -233 12 -250
-2z"/>
<path d="M2940 4780 c0 -5 5 -10 10 -10 6 0 10 5 10 10 0 6 -4 10 -10 10 -5 0
-10 -4 -10 -10z"/>
<path d="M7780 4779 c0 -5 5 -7 10 -4 6 3 10 8 10 11 0 2 -4 4 -10 4 -5 0 -10
-5 -10 -11z"/>
<path d="M3110 4760 c0 -5 5 -10 11 -10 5 0 7 5 4 10 -3 6 -8 10 -11 10 -2 0
-4 -4 -4 -10z"/>
<path d="M7946 4755 c4 -8 8 -15 10 -15 2 0 4 7 4 15 0 8 -4 15 -10 15 -5 0
-7 -7 -4 -15z"/>
<path d="M2090 4716 c0 -2 7 -6 15 -10 8 -3 15 -1 15 4 0 6 -7 10 -15 10 -8 0
-15 -2 -15 -4z"/>
<path d="M2101 4267 c-9 -11 -8 -17 4 -27 13 -11 14 -10 9 4 -5 12 -2 15 11
10 12 -5 16 -3 13 6 -6 20 -23 23 -37 7z"/>
<path d="M10690 4249 c0 -5 5 -7 10 -4 6 3 10 8 10 11 0 2 -4 4 -10 4 -5 0
-10 -5 -10 -11z"/>
<path d="M4848 3044 c-3 -5 -18 -46 -32 -91 l-28 -83 -75 56 c-41 30 -76 54
-78 52 -1 -2 10 -42 25 -90 l28 -88 -72 -1 c-39 0 -80 -4 -90 -8 -17 -7 -16
-9 11 -29 17 -12 33 -22 36 -22 8 0 67 -54 67 -61 0 -4 -32 -31 -72 -61 l-72
-53 95 -5 96 -5 -27 -87 c-15 -49 -26 -88 -24 -88 11 0 121 86 122 95 0 5 18
14 39 20 30 9 37 15 35 32 -2 17 1 20 18 16 26 -7 37 -23 15 -23 -9 0 -14 -4
-11 -9 9 -15 -5 -43 -19 -37 -22 8 -27 -43 -9 -98 9 -28 19 -54 23 -58 4 -5
19 30 35 77 15 47 30 85 34 85 4 0 39 -22 77 -50 38 -27 70 -48 72 -47 1 2 -8
39 -22 83 -14 43 -25 82 -25 87 0 4 15 7 34 7 42 0 52 20 25 53 -24 31 -27 56
-4 37 9 -7 15 -8 15 -2 0 5 -7 13 -16 16 -24 9 -15 20 60 75 l69 50 -36 6
c-42 8 -57 2 -50 -23 6 -23 -19 -44 -41 -36 -9 3 -16 17 -16 31 0 16 -7 27
-20 30 -25 7 -25 1 5 98 14 44 25 81 25 83 0 2 -34 -20 -75 -49 -41 -29 -77
-50 -80 -47 -3 3 -18 43 -33 88 -16 46 -31 80 -34 74z m168 -321 c-11 -11 -17
4 -9 23 7 18 8 18 11 1 2 -10 1 -21 -2 -24z m-193 -5 c-5 -24 -2 -28 18 -28
31 0 12 -19 -22 -22 -20 -2 -25 -6 -21 -21 4 -17 3 -18 -17 -6 -14 10 -21 23
-20 44 2 53 7 61 38 60 27 0 29 -3 24 -27z m221 -30 c3 -16 -1 -32 -10 -39 -8
-6 -14 -18 -14 -27 0 -13 -3 -13 -19 2 -11 10 -25 14 -36 10 -15 -6 -14 -2 5
24 13 18 32 34 42 38 10 3 18 10 18 16 0 19 9 4 14 -24z m-124 -123 c0 -8 -4
-15 -10 -15 -5 0 -10 7 -10 15 0 8 5 15 10 15 6 0 10 -7 10 -15z"/>
<path d="M7923 2994 c-15 -45 -18 -65 -10 -73 8 -8 8 -11 -1 -11 -7 0 -12 -5
-12 -11 0 -5 4 -8 9 -5 5 3 12 -2 16 -12 8 -22 7 -27 -5 -28 -5 -1 -14 -2 -20
-3 -5 0 -10 -10 -10 -20 0 -29 -16 -34 -40 -14 -25 21 -26 49 -2 58 16 6 16 7
-2 20 -10 8 -23 12 -28 9 -5 -3 -7 -1 -6 4 2 6 -16 24 -39 41 -24 17 -43 27
-43 22 0 -8 35 -128 47 -157 4 -11 -5 -14 -38 -14 -55 0 -78 -13 -61 -33 7 -8
10 -21 6 -30 -3 -10 5 -21 25 -33 17 -10 31 -21 31 -24 0 -3 -32 -27 -70 -55
-38 -27 -70 -53 -70 -57 0 -5 41 -8 91 -8 73 0 90 -3 86 -14 -12 -30 -47 -149
-47 -158 0 -5 14 1 31 14 46 34 113 78 121 78 3 0 9 -13 13 -30 8 -35 13 -37
31 -12 9 11 13 13 14 4 0 -7 5 -10 10 -7 6 4 8 11 5 16 -4 5 -2 9 4 9 5 0 14
-8 20 -17 8 -16 10 -14 16 10 9 33 11 33 57 2 44 -30 104 -35 93 -7 -7 16 -35
104 -35 110 0 1 41 2 90 2 50 0 90 3 90 8 0 7 -62 52 -72 52 -14 0 -69 63 -60
69 5 3 37 26 71 51 72 52 67 58 -46 59 -40 1 -73 2 -73 4 0 1 11 36 24 77 13
41 20 76 15 78 -14 5 -80 -39 -73 -49 3 -5 -4 -9 -15 -9 -12 0 -21 -4 -21 -10
0 -16 -34 -11 -50 8 -8 9 -15 33 -16 52 -1 19 -8 51 -16 70 l-14 35 -21 -61z
m17 -188 c0 -3 -4 -8 -10 -11 -5 -3 -10 -1 -10 4 0 6 5 11 10 11 6 0 10 -2 10
-4z"/>
<path d="M5130 2601 c0 -27 26 -46 50 -35 18 8 17 11 -15 32 -33 21 -35 21
-35 3z"/>
<path d="M5704 2335 c-26 -79 -43 -100 -59 -75 -5 8 -11 7 -20 0 -17 -14 -38
-3 -31 15 3 9 -6 16 -24 20 -18 4 -27 11 -24 19 3 7 -2 19 -11 26 -20 16 -19
9 9 -78 14 -46 31 -79 45 -89 20 -13 22 -21 17 -56 -4 -22 -13 -48 -20 -59
-13 -18 -15 -18 -30 -2 -10 9 -15 23 -12 31 3 8 6 19 6 25 0 6 9 8 19 5 12 -3
22 1 25 10 8 21 7 25 -5 18 -5 -4 -19 1 -29 10 -14 13 -34 16 -94 14 -42 -2
-76 -6 -76 -9 0 -3 32 -27 70 -55 38 -27 69 -52 69 -55 0 -3 -31 -27 -69 -55
-38 -27 -70 -54 -70 -58 0 -5 4 -6 9 -2 6 3 46 3 91 -1 72 -6 80 -9 75 -26 -4
-11 -1 -20 9 -24 12 -5 13 -10 5 -25 -5 -10 -16 -19 -23 -19 -11 0 -41 -79
-32 -87 6 -6 86 69 86 80 0 7 15 12 34 13 33 0 34 0 61 -83 16 -46 29 -83 31
-83 1 0 15 37 30 83 14 45 28 84 30 86 2 2 15 -1 29 -7 14 -6 24 -8 24 -4 -5
28 3 34 36 30 19 -2 35 -3 35 -2 0 2 -5 15 -10 30 -8 19 -7 30 1 41 12 14 27
14 142 -2 15 -2 27 0 27 4 0 5 -31 30 -70 57 -38 27 -70 51 -69 54 0 3 31 27
69 54 39 27 70 52 70 56 0 4 -39 8 -87 9 -48 1 -89 3 -90 5 -2 1 8 36 22 76
14 40 25 80 25 87 0 7 -30 -8 -69 -37 -38 -27 -73 -50 -78 -50 -5 0 -21 38
-37 85 -15 47 -29 85 -31 85 -2 0 -16 -38 -31 -85z m155 -314 c7 -5 10 -14 7
-20 -4 -6 -3 -11 3 -11 5 0 13 5 16 10 4 6 11 8 16 5 12 -8 12 -45 0 -45 -5 0
-13 -9 -16 -21 -4 -11 -11 -19 -17 -17 -5 2 -8 8 -6 13 2 6 6 9 10 8 3 -1 9 5
12 13 4 11 1 14 -13 9 -13 -4 -23 2 -35 20 -23 35 -10 56 23 36z"/>
<path d="M7930 2390 c-13 -8 -12 -11 5 -24 22 -16 41 -6 32 18 -7 18 -16 20
-37 6z"/>
<path d="M6926 2244 c-14 -43 -15 -58 -5 -70 9 -11 9 -14 -2 -14 -9 0 -10 -3
-3 -8 6 -4 16 -16 22 -27 9 -18 7 -21 -16 -20 -17 0 -27 -5 -27 -15 0 -8 -4
-21 -9 -28 -6 -11 -12 -10 -27 4 -24 22 -25 61 -1 66 12 2 -3 18 -51 52 -37
27 -70 46 -72 44 -3 -3 6 -38 20 -78 33 -98 33 -100 -17 -100 -48 0 -78 -13
-58 -25 6 -4 9 -14 5 -23 -3 -9 6 -25 27 -42 l32 -27 -72 -54 -73 -54 91 -3
c62 -2 90 -6 90 -15 0 -7 -11 -46 -24 -87 -13 -41 -23 -77 -21 -79 2 -2 36 20
74 48 39 28 73 51 75 51 2 0 9 -13 15 -30 10 -30 31 -41 31 -17 0 8 3 7 10 -3
7 -12 11 -10 18 10 9 22 11 23 17 8 10 -25 20 -22 31 7 l9 26 35 -24 c40 -27
86 -41 94 -28 3 5 -3 34 -13 64 -11 30 -17 58 -14 61 4 3 47 6 97 6 l91 0 -30
25 c-16 13 -36 24 -43 25 -7 0 -28 15 -46 34 l-32 35 74 53 75 53 -84 3 c-46
1 -89 4 -96 7 -9 3 -5 24 12 76 15 44 21 77 16 82 -10 10 -71 -30 -71 -47 0
-6 -16 -16 -35 -22 -30 -10 -36 -8 -54 12 -10 12 -15 26 -11 30 8 9 -20 114
-31 114 -3 0 -13 -25 -23 -56z m34 -98 c0 -3 -4 -8 -10 -11 -5 -3 -10 -1 -10
4 0 6 5 11 10 11 6 0 10 -2 10 -4z m-20 -86 c0 -5 -5 -10 -11 -10 -5 0 -7 5
-4 10 3 6 8 10 11 10 2 0 4 -4 4 -10z"/>
<path d="M4786 1981 c-4 -5 0 -11 6 -14 10 -3 10 -7 -1 -20 -20 -26 1 -43 54
-45 57 -3 59 15 6 57 -40 32 -56 37 -65 22z"/>
<path d="M4785 1875 c11 -8 25 -18 30 -23 39 -31 134 -97 214 -146 67 -41 96
-54 101 -46 6 9 13 5 24 -13 19 -29 70 -53 103 -49 16 3 21 -1 17 -11 -3 -10
18 -23 73 -47 76 -31 96 -36 138 -28 13 2 23 -5 30 -19 6 -15 29 -29 69 -43
77 -26 82 -25 81 7 0 20 6 28 20 31 18 2 18 1 4 -10 -16 -13 -15 -38 2 -38 6
0 7 5 4 10 -3 6 -2 10 3 10 6 0 12 -7 16 -15 4 -11 -1 -15 -17 -15 -44 -1 7
-17 135 -45 70 -14 137 -25 150 -24 13 2 28 1 33 -3 24 -15 223 -29 374 -26
173 3 170 2 185 52 5 15 9 16 21 6 8 -7 15 -22 15 -33 0 -19 4 -19 78 -13 42
4 78 11 80 15 1 4 15 6 30 4 42 -7 77 10 77 37 0 13 6 25 14 28 10 3 12 -3 7
-26 -7 -27 -5 -29 19 -25 30 6 41 21 27 35 -6 6 -8 16 -5 23 2 7 -4 15 -14 18
-16 4 -15 6 5 12 12 4 22 11 22 16 0 13 -28 11 -95 -7 -33 -8 -85 -17 -115
-19 -30 -3 -68 -7 -85 -9 -16 -2 -56 -6 -87 -7 -32 -1 -58 -7 -58 -12 0 -5 -5
-5 -13 1 -8 7 -80 11 -191 11 -98 0 -181 2 -184 5 -2 3 -14 0 -25 -6 -20 -10
-20 -11 4 -24 14 -8 18 -13 9 -13 -21 0 -63 36 -55 49 4 6 -5 10 -21 10 -107
0 -608 145 -696 202 -39 25 -58 29 -58 12 0 -8 4 -13 8 -10 5 3 7 -8 4 -23 -3
-20 -9 -28 -20 -27 -20 3 -53 64 -48 88 3 11 -12 25 -48 44 -28 15 -92 54
-142 86 -96 61 -141 74 -131 37 4 -16 3 -18 -9 -8 -7 6 -11 16 -7 22 4 6 1 7
-8 2 -20 -13 -58 -15 -64 -4 -4 5 -16 9 -28 9 -22 -1 -22 -1 -2 -15z m362
-155 c3 -11 10 -20 16 -20 7 0 6 -5 -2 -12 -10 -11 -15 -9 -26 5 -12 17 -14
17 -23 1 -9 -16 -10 -15 -17 6 -5 15 -2 25 6 31 23 14 41 10 46 -11z m208 -90
c3 -5 -3 -10 -15 -10 -12 0 -18 5 -15 10 3 6 10 10 15 10 5 0 12 -4 15 -10z
m95 -52 c0 -5 -4 -6 -10 -3 -5 3 -10 -3 -10 -14 0 -10 6 -22 13 -24 6 -3 -2
-6 -19 -6 -42 -1 -73 22 -56 42 14 16 82 21 82 5z m1260 -142 c0 -3 -4 -8 -10
-11 -5 -3 -10 -1 -10 4 0 6 5 11 10 11 6 0 10 -2 10 -4z"/>
<path d="M5890 1802 c0 -5 14 -18 30 -30 28 -21 30 -21 30 -4 0 10 -5 23 -12
30 -14 14 -48 16 -48 4z"/>
<path d="M6936 1648 c-16 -9 -16 -11 4 -25 19 -13 24 -13 31 -2 5 8 9 17 9 20
0 13 -26 17 -44 7z"/>
<path d="M5542 1403 c-9 -4 -5 -12 13 -28 14 -13 25 -29 25 -35 0 -15 11 -12
26 8 20 26 17 35 -10 28 -16 -4 -26 0 -32 13 -5 10 -15 16 -22 14z"/>
</g>
</svg>
